<svg width="44" height="44" viewBox="0 0 44 44" fill="none" xmlns="http://www.w3.org/2000/svg">
<path fill-rule="evenodd" clip-rule="evenodd" d="M22.0003 0.916656C16.7776 0.919366 11.7262 2.76915 7.7492 6.13525C3.77225 9.50135 1.12914 14.1643 0.292486 19.2902C-0.544166 24.4162 0.480186 29.6709 3.1824 34.1148C5.88461 38.5587 10.0885 41.902 15.0423 43.5469C16.1352 43.7497 16.5468 43.0723 16.5468 42.4964C16.5468 41.9205 16.525 40.2506 16.5177 38.425C10.3975 39.7471 9.10424 35.8423 9.10424 35.8423C8.10607 33.3068 6.66345 32.6403 6.66345 32.6403C4.66711 31.2856 6.81282 31.3109 6.81282 31.3109C9.0241 31.4667 10.1862 33.5676 10.1862 33.5676C12.1461 36.9109 15.3337 35.9438 16.5869 35.3787C16.7836 33.9624 17.3556 32.9989 17.9858 32.4519C13.0969 31.9013 7.96034 30.025 7.96034 21.6431C7.93004 19.4693 8.74131 17.3672 10.2263 15.7715C10.0004 15.2209 9.24631 12.9968 10.4412 9.97589C10.4412 9.97589 12.2882 9.38909 16.4922 12.2181C20.0981 11.2376 23.9026 11.2376 27.5085 12.2181C31.7088 9.38909 33.5522 9.97589 33.5522 9.97589C34.7507 12.9896 33.9966 15.2137 33.7708 15.7715C35.2604 17.3674 36.0734 19.4733 36.0403 21.6504C36.0403 30.0504 30.8928 31.9013 25.9967 32.4411C26.7835 33.122 27.4866 34.4514 27.4866 36.4943C27.4866 39.4211 27.4611 41.7756 27.4611 42.4964C27.4611 43.0796 27.8582 43.7606 28.973 43.5469C33.9274 41.9018 38.1316 38.5579 40.8338 34.1132C43.536 29.6686 44.5598 24.4131 43.7222 19.2866C42.8846 14.1602 40.2401 9.49726 36.2619 6.13174C32.2836 2.76622 27.231 0.917649 22.0076 0.916656H22.0003Z" fill="#191717"/>
</svg>
