<svg width="44" height="44" viewBox="0 0 44 44" fill="none" xmlns="http://www.w3.org/2000/svg">
<path d="M13.8371 39.876C30.441 39.876 39.5226 26.1199 39.5226 14.1906C39.5226 13.7999 39.5226 13.4109 39.4962 13.0237C41.2629 11.7458 42.788 10.1635 44 8.35092C42.3526 9.08132 40.6047 9.5601 38.815 9.77124C40.6997 8.64317 42.1101 6.86867 42.7838 4.77812C41.0118 5.82973 39.0732 6.5708 37.0515 6.96932C35.6904 5.52204 33.8903 4.56369 31.9297 4.24257C29.9691 3.92145 27.9573 4.25546 26.2056 5.19291C24.4539 6.13037 23.0601 7.619 22.2397 9.42846C21.4193 11.2379 21.2182 13.2673 21.6674 15.2026C18.0783 15.0226 14.5672 14.0898 11.362 12.4649C8.15678 10.84 5.32907 8.5593 3.0624 5.77076C1.908 7.75808 1.55443 10.1107 2.07368 12.3495C2.59293 14.5884 3.94596 16.5452 5.85728 17.8215C4.42059 17.7794 3.01519 17.3918 1.76 16.6916V16.806C1.76057 18.8902 2.48206 20.9101 3.8021 22.523C5.12213 24.1359 6.95945 25.2425 9.0024 25.6552C7.67338 26.0178 6.27894 26.0707 4.92624 25.8101C5.50333 27.6037 6.62645 29.1722 8.13861 30.2962C9.65076 31.4202 11.4763 32.0436 13.3602 32.0792C11.4885 33.5504 9.34508 34.6382 7.0526 35.2802C4.76013 35.9223 2.36356 36.106 0 35.821C4.12836 38.4702 8.93186 39.8754 13.8371 39.869" fill="#1DA1F2"/>
</svg>
